<svg id="Capa_1" enable-background="new 0 0 512 512" height="512" viewBox="0 0 512 512" width="512" xmlns="http://www.w3.org/2000/svg"><g><g><g><g><path d="m474.79 7.447h-437.176l-29.997 29.997v467.102h3.182l110.201-120.95h353.79l29.997-29.997v-316.155z" fill="#a070ce"/></g><g><path d="m497.003 361.383h-366.046l-20.031 22.213h363.864z" fill="#8040be"/></g><g><path d="m7.617 37.444v467.102h3.182l18.796-20.629v-468.451z" fill="#8040be"/></g><g><circle cx="121" cy="203.499" fill="#faef93" r="37.5"/></g><g><path d="m136.574 225.425c-20.711 0-37.5-16.789-37.5-37.5 0-6.346 1.582-12.321 4.365-17.561-11.859 6.299-19.939 18.771-19.939 33.136 0 20.71 16.789 37.5 37.5 37.5 14.364 0 26.837-8.08 33.135-19.94-5.24 2.782-11.214 4.365-17.561 4.365z" fill="#f6e23d"/></g><g><circle cx="256" cy="203.499" fill="#faef93" r="37.5"/></g><g><path d="m271.73 225.425c-20.711 0-37.5-16.789-37.5-37.5 0-6.346 1.582-12.321 4.365-17.561-11.86 6.298-19.94 18.771-19.94 33.135 0 20.71 16.789 37.5 37.5 37.5 14.364 0 26.837-8.08 33.135-19.94-5.239 2.783-11.213 4.366-17.56 4.366z" fill="#f6e23d"/></g><g><circle cx="391.312" cy="203.499" fill="#faef93" r="37.5"/></g><g><path d="m406.886 225.425c-20.711 0-37.5-16.789-37.5-37.5 0-6.346 1.582-12.321 4.365-17.561-11.86 6.298-19.94 18.771-19.94 33.135 0 20.71 16.789 37.5 37.5 37.5 14.364 0 26.837-8.08 33.135-19.94-5.239 2.783-11.214 4.366-17.56 4.366z" fill="#f6e23d"/></g><g><path d="m46.16 31h15v15h-15z" fill="#fff"/></g><g><path d="m76 31h15v15h-15z" fill="#fff"/></g></g></g><g><path d="m14.995 488.63v-397.595h-14.995v420.965h13.99l110.165-120.927h275.319v-14.997h-281.943z"/><path d="m477.621 0h-443.242l-34.379 34.384v41.654h14.995v-35.442l25.595-25.599h430.82l25.595 25.599v309.881l-25.595 25.599h-26.696v14.997h32.907l34.379-34.384v-322.305z"/><path d="m414.647 376.076h14.905v14.997h-14.905z"/><path d="m120.843 248.504c24.805 0 44.985-20.183 44.985-44.991s-20.18-44.991-44.985-44.991-44.985 20.183-44.985 44.991 20.18 44.991 44.985 44.991zm0-74.986c16.537 0 29.99 13.455 29.99 29.994s-13.454 29.994-29.99 29.994-29.99-13.455-29.99-29.994 13.453-29.994 29.99-29.994z"/><path d="m391.065 158.521c-24.805 0-44.985 20.183-44.985 44.991s20.18 44.991 44.985 44.991 44.985-20.183 44.985-44.991-20.181-44.991-44.985-44.991zm0 74.986c-16.536 0-29.99-13.455-29.99-29.994s13.454-29.994 29.99-29.994 29.99 13.455 29.99 29.994-13.454 29.994-29.99 29.994z"/><path d="m255.798 173.518c5.307 0 10.518 1.402 15.071 4.056l7.549-12.958c-6.842-3.987-14.664-6.095-22.62-6.095-24.805 0-44.985 20.183-44.985 44.991s20.18 44.991 44.985 44.991 44.985-20.183 44.985-44.991c0-9.346-2.84-18.309-8.212-25.921l-12.251 8.649c3.577 5.068 5.468 11.041 5.468 17.272 0 16.539-13.454 29.994-29.99 29.994s-29.99-13.455-29.99-29.994 13.453-29.994 29.99-29.994z"/></g></g></svg>